<svg xmlns="http://www.w3.org/2000/svg" viewBox="0 0 500 500">
  <defs>
    <clipPath id="circle-clip">
      <circle cx="250" cy="250" r="250" />
    </clipPath>
  </defs>
  <g clip-path="url(#circle-clip)">
    <!-- Sky Blue Background -->
    <rect width="500" height="500" fill="#3f72af" />
    
    <!-- White Mountain Top -->
    <path d="M 0 310 
             L 75 230 
             L 125 285 
             L 155 255 
             L 165 265 
             L 250 145 
             L 315 225 
             L 360 185 
             L 400 240 
             L 440 200 
             L 500 270 
             L 500 500 
             L 0 500 Z" fill="#ffffff" />
             
    <!-- Dark Blue Mountain Base -->
    <path d="M 0 325 
             L 55 260 
             L 55 285 
             L 85 245 
             L 135 310 
             L 175 260 
             L 175 285 
             L 215 230 
             L 215 250 
             L 260 180 
             L 310 250 
             L 340 215 
             L 340 235 
             L 370 200 
             L 405 255 
             L 430 225 
             L 430 245 
             L 450 215 
             L 500 285 
             L 500 500 
             L 0 500 Z" fill="#1a1a5c" />
  </g>
</svg>