<?xml version="1.0" encoding="UTF-8"?>
<!-- Generator: visioncortex VTracer 0.6.12 -->
<svg version="1.1" xmlns="http://www.w3.org/2000/svg" width="48" height="48">
<path d="M0 0 C0.876 -0.003 1.753 -0.006 2.656 -0.009 C4.509 -0.011 6.361 -0.005 8.214 0.007 C11.052 0.023 13.889 0.007 16.727 -0.012 C18.526 -0.01 20.326 -0.006 22.125 0 C22.975 -0.006 23.825 -0.012 24.701 -0.018 C30.593 0.052 30.593 0.052 32.786 1.669 C34.339 3.773 34.442 4.86 34.451 7.455 C34.46 8.266 34.47 9.077 34.479 9.912 C34.473 10.784 34.467 11.656 34.461 12.555 C34.464 13.453 34.467 14.352 34.47 15.278 C34.472 17.178 34.466 19.077 34.454 20.977 C34.438 23.888 34.453 26.797 34.473 29.707 C34.471 31.552 34.467 33.397 34.461 35.242 C34.464 35.678 34.464 35.678 34.479 37.884 C34.47 38.695 34.46 39.506 34.451 40.342 C34.448 41.054 34.446 41.767 34.443 42.501 C33.939 45.012 33.11 45.889 31.062 47.398 C28.014 47.697 25.174 47.819 22.125 47.797 C21.249 47.8 20.372 47.803 19.469 47.806 C17.616 47.808 15.764 47.802 13.911 47.79 C11.073 47.773 8.236 47.789 5.398 47.809 C3.599 47.807 1.799 47.803 0 47.797 C-0.85 47.803 -1.7 47.809 -2.576 47.815 C-8.468 47.745 -8.468 47.745 -10.661 46.128 C-12.214 44.024 -12.317 42.937 -12.326 40.342 C-12.335 39.531 -12.345 38.72 -12.354 37.884 C-12.348 37.012 -12.342 36.141 -12.336 35.242 C-12.339 34.344 -12.342 33.445 -12.345 32.519 C-12.347 30.619 -12.341 28.719 -12.329 26.82 C-12.313 23.909 -12.328 21 -12.348 18.09 C-12.346 16.245 -12.342 14.4 -12.336 12.555 C-12.342 11.683 -12.348 10.811 -12.354 9.912 C-12.345 9.102 -12.335 8.291 -12.326 7.455 C-12.323 6.742 -12.321 6.03 -12.318 5.296 C-11.062 -0.96 -5.158 -0.037 0 0 Z " fill="#F1646A" transform="translate(12.9375,0.6015625)"/>
<path d="M0 0 C0.876 -0.003 1.753 -0.006 2.656 -0.009 C4.509 -0.011 6.361 -0.005 8.214 0.007 C11.052 0.023 13.889 0.007 16.727 -0.012 C18.526 -0.01 20.326 -0.006 22.125 0 C22.975 -0.006 23.825 -0.012 24.701 -0.018 C30.593 0.052 30.593 0.052 32.786 1.669 C34.339 3.773 34.442 4.86 34.451 7.455 C34.46 8.266 34.47 9.077 34.479 9.912 C34.473 10.784 34.467 11.656 34.461 12.555 C34.464 13.453 34.467 14.352 34.47 15.278 C34.472 17.178 34.466 19.077 34.454 20.977 C34.438 23.888 34.453 26.797 34.473 29.707 C34.471 31.552 34.467 33.397 34.461 35.242 C34.464 35.678 34.464 35.678 34.479 37.884 C34.47 38.695 34.46 39.506 34.451 40.342 C34.448 41.054 34.446 41.767 34.443 42.501 C33.939 45.012 33.11 45.889 31.062 47.398 C28.014 47.697 25.174 47.819 22.125 47.797 C21.249 47.8 20.372 47.803 19.469 47.806 C17.616 47.808 15.764 47.802 13.911 47.79 C11.073 47.773 8.236 47.789 5.398 47.809 C3.599 47.807 1.799 47.803 0 47.797 C-0.85 47.803 -1.7 47.809 -2.576 47.815 C-8.468 47.745 -8.468 47.745 -10.661 46.128 C-12.214 44.024 -12.317 42.937 -12.326 40.342 C-12.335 39.531 -12.345 38.72 -12.354 37.884 C-12.348 37.012 -12.342 36.141 -12.336 35.242 C-12.339 34.344 -12.342 33.445 -12.345 32.519 C-12.347 30.619 -12.341 28.719 -12.329 26.82 C-12.313 23.909 -12.328 21 -12.348 18.09 C-12.346 16.245 -12.342 14.4 -12.336 12.555 C-12.342 11.683 -12.348 10.811 -12.354 9.912 C-12.345 9.102 -12.335 8.291 -12.326 7.455 C-12.323 6.742 -12.321 6.03 -12.318 5.296 C-11.062 -0.96 -5.158 -0.037 0 0 Z M5.062 11.398 C5.062 15.358 5.062 19.318 5.062 23.398 C4.075 23.387 3.088 23.375 2.07 23.363 C0.789 23.354 -0.492 23.345 -1.812 23.336 C-2.451 23.33 -2.451 23.33 -5.68 23.301 C-8.938 23.398 -8.938 23.398 -10.938 24.398 C-10.991 27.336 -11.031 30.273 -11.062 33.211 C-11.079 34.044 -11.096 34.878 -11.113 35.736 C-11.12 36.539 -11.126 37.341 -11.133 38.168 C-11.143 38.906 -11.154 39.645 -11.165 40.406 C-10.938 42.398 -10.938 42.398 -8.938 45.398 C-5.993 45.702 -3.263 45.818 -0.316 45.797 C0.539 45.8 1.395 45.803 2.277 45.806 C4.088 45.808 5.9 45.802 7.711 45.79 C10.486 45.774 13.259 45.789 16.033 45.809 C17.792 45.807 19.55 45.803 21.309 45.797 C22.14 45.803 22.971 45.809 23.828 45.815 C29.63 45.744 29.63 45.744 31.784 44.022 C33.579 41.742 33.405 40.166 33.355 37.293 C33.346 36.31 33.336 35.327 33.326 34.314 C33.301 33.29 33.276 32.266 33.25 31.211 C33.236 30.175 33.223 29.139 33.209 28.072 C33.174 25.514 33.124 22.956 33.062 20.398 C31.413 20.398 29.763 20.398 28.062 20.398 C28.062 19.408 28.062 18.418 28.062 17.398 C26.125 17.773 26.125 17.773 24.062 18.398 C23.733 19.058 23.403 19.718 23.062 20.398 C22.072 20.398 21.083 20.398 20.062 20.398 C20.062 16.768 20.062 13.138 20.062 9.398 C14.741 9.126 10.202 10.153 5.062 11.398 Z " fill="#EA3F5B" transform="translate(12.9375,0.6015625)"/>
<path d="M0 0 C0.876 -0.003 1.753 -0.006 2.656 -0.009 C4.509 -0.011 6.361 -0.005 8.214 0.007 C11.052 0.023 13.889 0.007 16.727 -0.012 C18.526 -0.01 20.326 -0.006 22.125 0 C22.975 -0.006 23.825 -0.012 24.701 -0.018 C30.593 0.052 30.593 0.052 32.786 1.669 C34.339 3.773 34.442 4.86 34.451 7.455 C34.46 8.266 34.47 9.077 34.479 9.912 C34.473 10.784 34.467 11.656 34.461 12.555 C34.464 13.453 34.467 14.352 34.47 15.278 C34.472 17.178 34.466 19.077 34.454 20.977 C34.438 23.888 34.453 26.797 34.473 29.707 C34.471 31.552 34.467 33.397 34.461 35.242 C34.464 35.678 34.464 35.678 34.479 37.884 C34.47 38.695 34.46 39.506 34.451 40.342 C34.448 41.054 34.446 41.767 34.443 42.501 C33.939 45.012 33.11 45.889 31.062 47.398 C28.014 47.697 25.174 47.819 22.125 47.797 C21.249 47.8 20.372 47.803 19.469 47.806 C17.616 47.808 15.764 47.802 13.911 47.79 C11.073 47.773 8.236 47.789 5.398 47.809 C3.599 47.807 1.799 47.803 0 47.797 C-0.85 47.803 -1.7 47.809 -2.576 47.815 C-8.468 47.745 -8.468 47.745 -10.661 46.128 C-12.214 44.024 -12.317 42.937 -12.326 40.342 C-12.335 39.531 -12.345 38.72 -12.354 37.884 C-12.348 37.012 -12.342 36.141 -12.336 35.242 C-12.339 34.344 -12.342 33.445 -12.345 32.519 C-12.347 30.619 -12.341 28.719 -12.329 26.82 C-12.313 23.909 -12.328 21 -12.348 18.09 C-12.346 16.245 -12.342 14.4 -12.336 12.555 C-12.342 11.683 -12.348 10.811 -12.354 9.912 C-12.345 9.102 -12.335 8.291 -12.326 7.455 C-12.323 6.742 -12.321 6.03 -12.318 5.296 C-11.062 -0.96 -5.158 -0.037 0 0 Z M-9.651 2.686 C-11.891 5.666 -11.342 9.315 -11.301 12.898 C-11.301 13.731 -11.302 14.563 -11.302 15.42 C-11.3 17.178 -11.29 18.937 -11.274 20.695 C-11.25 23.388 -11.253 26.08 -11.26 28.773 C-11.254 30.482 -11.247 32.19 -11.238 33.898 C-11.239 34.705 -11.24 35.511 -11.241 36.342 C-11.192 40.207 -11.13 42.109 -8.938 45.398 C-5.993 45.702 -3.263 45.818 -0.316 45.797 C0.539 45.8 1.395 45.803 2.277 45.806 C4.088 45.808 5.9 45.802 7.711 45.79 C10.486 45.774 13.259 45.789 16.033 45.809 C17.792 45.807 19.55 45.803 21.309 45.797 C22.14 45.803 22.971 45.809 23.828 45.815 C29.6 45.745 29.6 45.745 31.781 44.111 C34.013 41.128 33.488 37.481 33.461 33.898 C33.462 33.482 33.462 33.482 33.47 31.377 C33.472 29.618 33.466 27.86 33.454 26.102 C33.438 23.408 33.453 20.717 33.473 18.023 C33.471 16.315 33.467 14.607 33.461 12.898 C33.467 12.092 33.473 11.286 33.479 10.455 C33.409 4.859 33.409 4.859 31.775 2.686 C28.795 0.445 25.148 0.973 21.562 1 C21.146 0.999 21.146 0.999 19.041 0.991 C17.283 0.989 15.524 0.995 13.766 1.007 C11.072 1.023 8.381 1.007 5.688 0.988 C3.979 0.99 2.271 0.994 0.562 1 C-0.244 0.994 -1.05 0.988 -1.881 0.982 C-7.477 1.052 -7.477 1.052 -9.651 2.686 Z " fill="#561922" transform="translate(12.9375,0.6015625)"/>
<path d="M0 0 C0.029 3.792 0.047 7.583 0.062 11.375 C0.071 12.455 0.079 13.535 0.088 14.648 C0.09 15.164 0.09 15.164 0.098 17.773 C0.1 18.25 0.1 18.25 0.114 20.662 C0 23 0 23 -1 25 C-2.98 25 -4.96 25 -7 25 C-7.625 22.625 -7.625 22.625 -8 20 C-7.34 19.34 -6.68 18.68 -6 18 C-4.35 18.33 -2.7 18.66 -1 19 C-1 14.71 -1 10.42 -1 6 C-4.96 6.66 -8.92 7.32 -13 8 C-13.049 9.276 -13.098 10.552 -13.148 11.867 C-13.223 13.536 -13.299 15.206 -13.375 16.875 C-13.406 17.717 -13.437 18.559 -13.469 19.426 C-13.507 20.231 -13.546 21.037 -13.586 21.867 C-13.602 22.239 -13.602 22.239 -13.681 24.121 C-14 26 -14 26 -16 28 C-19.536 27.464 -19.536 27.464 -21 26 C-21.041 24.334 -21.043 22.666 -21 21 C-19.02 21 -17.04 21 -15 21 C-15 14.73 -15 8.46 -15 2 C-4.875 -0.25 -4.875 -0.25 0 0 Z " fill="#FCEDED" transform="translate(33,10)"/>
<path d="M0 0 C0.165 0.495 0.165 0.495 1 3 C-1.458 5.9 -1.872 5.987 -5.981 6.388 C-7.645 6.408 -9.309 6.41 -10.973 6.398 C-11.852 6.401 -12.73 6.404 -13.636 6.407 C-15.493 6.409 -17.35 6.404 -19.206 6.391 C-22.055 6.375 -24.903 6.391 -27.752 6.41 C-29.555 6.408 -31.357 6.404 -33.16 6.398 C-33.588 6.401 -33.588 6.401 -35.752 6.417 C-38.149 6.388 -38.149 6.388 -42 6 C-42.66 5.01 -43.32 4.02 -44 3 C-29.81 3 -15.62 3 -1 3 C-0.67 2.01 -0.34 1.02 0 0 Z " fill="#2A1212" transform="translate(46,42)"/>
<path d="M0 0 C0 2.64 0 5.28 0 8 C-3.63 8 -7.26 8 -11 8 C-11 5.69 -11 3.38 -11 1 C-7.266 0.121 -3.832 -0.089 0 0 Z " fill="#ED4954" transform="translate(31,16)"/>
<path d="M0 0 C0.33 0 0.66 0 1 0 C1 4.29 1 8.58 1 13 C-2.3 12.67 -5.6 12.34 -9 12 C-9.33 13.155 -9.33 13.155 -11 19 C-11.33 19 -11.66 19 -12 19 C-12 13.39 -12 7.78 -12 2 C-11.67 2 -11.34 2 -11 2 C-11 3.98 -11 5.96 -11 8 C-7.37 8 -3.74 8 0 8 C0 5.36 0 2.72 0 0 Z " fill="#ED767C" transform="translate(31,16)"/>
<path d="M0 0 C0.66 0.33 1.32 0.66 2 1 C1.886 3.959 1.76 6.917 1.625 9.875 C1.594 10.717 1.563 11.559 1.531 12.426 C1.493 13.231 1.454 14.037 1.414 14.867 C1.383 15.611 1.351 16.354 1.319 17.121 C1 19 1 19 -1 21 C-4.536 20.464 -4.536 20.464 -6 19 C-6.041 17.334 -6.043 15.666 -6 14 C-4.02 14 -2.04 14 0 14 C0 9.38 0 4.76 0 0 Z " fill="#FAE3E3" transform="translate(18,17)"/>
<path d="M0 0 C0.99 0 1.98 0 3 0 C3.124 0.619 3.248 1.238 3.375 1.875 C4 4 4 4 6 6 C2.37 6 -1.26 6 -5 6 C-5 5.01 -5 4.02 -5 3 C-4.361 2.876 -3.721 2.753 -3.062 2.625 C-2.722 2.522 -2.722 2.522 -1 2 C-0.67 1.34 -0.34 0.68 0 0 Z " fill="#F15859" transform="translate(38,18)"/>
<path d="M0 0 C0 1.32 0 2.64 0 4 C-3.63 4 -7.26 4 -11 4 C-11 3.01 -11 2.02 -11 1 C-7.266 0.121 -3.832 -0.089 0 0 Z " fill="#E44F5A" transform="translate(31,16)"/>
</svg>
